<svg xmlns="http://www.w3.org/2000/svg" width="500" viewBox="0 0 375 375" height="500" version="1.0"><path d="M28.188 181.847v21.203h-3.641v-3.203c-.781 1.094-1.809 1.945-3.078 2.547-1.262.593-2.637.89-4.125.89-2.836 0-5.063-.773-6.688-2.328-1.625-1.562-2.437-3.863-2.437-6.906v-12.203h3.844v11.765c0 2.055.488 3.606 1.468 4.657.989 1.054 2.407 1.578 4.25 1.578 2.032 0 3.63-.61 4.797-1.828 1.176-1.227 1.766-2.961 1.766-5.203v-10.97zm18.624-.203c2.695 0 4.836.781 6.422 2.343 1.593 1.563 2.39 3.852 2.39 6.86v12.203H51.78v-11.766c0-2.05-.496-3.593-1.484-4.625-.992-1.039-2.402-1.562-4.234-1.562-2.086 0-3.727.61-4.922 1.828-1.2 1.21-1.797 2.945-1.797 5.203v10.922h-3.844v-21.203h3.672v3.203c.781-1.094 1.828-1.93 3.14-2.516 1.321-.593 2.821-.89 4.5-.89zm25.158 21.64c-2.155 0-4.085-.46-5.78-1.39-1.688-.938-3.012-2.223-3.97-3.86-.96-1.644-1.437-3.504-1.437-5.578 0-2.082.477-3.941 1.438-5.578a10.07 10.07 0 013.969-3.844c1.695-.925 3.625-1.39 5.78-1.39 1.927 0 3.641.39 5.141 1.172a8.23 8.23 0 013.5 3.359l-2.921 1.875c-.668-1.008-1.496-1.77-2.485-2.281-.98-.508-2.07-.766-3.265-.766-1.387 0-2.637.309-3.75.922a6.578 6.578 0 00-2.594 2.625c-.625 1.137-.938 2.437-.938 3.906 0 1.492.313 2.805.938 3.938.625 1.136 1.488 2.011 2.594 2.625 1.113.605 2.363.906 3.75.906 1.195 0 2.285-.25 3.265-.75.989-.508 1.817-1.27 2.485-2.281l2.921 1.843c-.824 1.461-1.992 2.586-3.5 3.375-1.5.782-3.214 1.172-5.14 1.172zm22.682 0c-2.105 0-4-.46-5.687-1.39-1.68-.938-2.992-2.223-3.938-3.86-.937-1.644-1.406-3.504-1.406-5.578 0-2.082.469-3.941 1.406-5.578a9.965 9.965 0 013.938-3.844c1.687-.925 3.582-1.39 5.687-1.39 2.102 0 3.989.465 5.657 1.39 1.664.918 2.972 2.2 3.921 3.844.946 1.637 1.422 3.496 1.422 5.578 0 2.074-.476 3.934-1.422 5.578a10.282 10.282 0 01-3.921 3.86c-1.668.93-3.555 1.39-5.657 1.39zm0-3.359c1.364 0 2.582-.313 3.657-.938 1.082-.625 1.93-1.503 2.546-2.64.614-1.133.922-2.43.922-3.89 0-1.47-.308-2.77-.922-3.907-.617-1.133-1.464-2.008-2.546-2.625-1.075-.613-2.293-.922-3.657-.922-1.355 0-2.574.309-3.656.922-1.086.617-1.937 1.492-2.562 2.625-.625 1.137-.938 2.437-.938 3.906 0 1.461.313 2.758.938 3.89.625 1.138 1.476 2.016 2.562 2.641 1.082.625 2.3.938 3.656.938zm42.835-18.281c2.664 0 4.782.777 6.344 2.328 1.563 1.543 2.344 3.836 2.344 6.875v12.203h-3.844v-11.766c0-2.05-.477-3.593-1.422-4.625-.949-1.039-2.305-1.562-4.062-1.562-1.95 0-3.496.61-4.64 1.828-1.15 1.21-1.72 2.945-1.72 5.203v10.922h-3.843v-11.766c0-2.05-.477-3.593-1.422-4.625-.938-1.039-2.29-1.562-4.047-1.562-1.95 0-3.496.61-4.64 1.828-1.15 1.21-1.72 2.945-1.72 5.203v10.922h-3.843v-21.203h3.672v3.156a7.539 7.539 0 013.046-2.5c1.25-.57 2.676-.86 4.282-.86 1.656 0 3.117.337 4.39 1a7 7 0 012.97 2.923c.8-1.22 1.913-2.176 3.343-2.875 1.426-.696 3.031-1.047 4.812-1.047zm42.276 0c2.664 0 4.781.777 6.344 2.328 1.562 1.543 2.344 3.836 2.344 6.875v12.203h-3.844v-11.766c0-2.05-.477-3.593-1.422-4.625-.95-1.039-2.305-1.562-4.063-1.562-1.949 0-3.496.61-4.64 1.828-1.149 1.21-1.719 2.945-1.719 5.203v10.922h-3.844v-11.766c0-2.05-.476-3.593-1.422-4.625-.937-1.039-2.289-1.562-4.046-1.562-1.95 0-3.496.61-4.641 1.828-1.148 1.21-1.719 2.945-1.719 5.203v10.922h-3.844v-21.203h3.672v3.156a7.539 7.539 0 013.047-2.5c1.25-.57 2.676-.86 4.281-.86 1.657 0 3.118.337 4.391 1a7 7 0 012.969 2.923c.8-1.22 1.914-2.176 3.344-2.875 1.425-.696 3.03-1.047 4.812-1.047zm24.838 21.64c-2.105 0-4-.46-5.687-1.39-1.68-.938-2.992-2.223-3.938-3.86-.937-1.644-1.406-3.504-1.406-5.578 0-2.082.469-3.941 1.406-5.578a9.965 9.965 0 013.938-3.844c1.687-.925 3.582-1.39 5.687-1.39 2.102 0 3.989.465 5.657 1.39 1.664.918 2.972 2.2 3.922 3.844.945 1.637 1.421 3.496 1.421 5.578 0 2.074-.476 3.934-1.421 5.578a10.282 10.282 0 01-3.922 3.86c-1.668.93-3.555 1.39-5.657 1.39zm0-3.359c1.364 0 2.582-.313 3.657-.938 1.082-.625 1.93-1.503 2.547-2.64.613-1.133.921-2.43.921-3.89 0-1.47-.308-2.77-.921-3.907-.618-1.133-1.465-2.008-2.547-2.625-1.075-.613-2.293-.922-3.657-.922-1.355 0-2.574.309-3.656.922-1.086.617-1.937 1.492-2.562 2.625-.625 1.137-.938 2.437-.938 3.906 0 1.461.313 2.758.938 3.89.625 1.138 1.476 2.016 2.562 2.641 1.082.625 2.3.938 3.656.938zm27.632-18.281c2.696 0 4.836.781 6.422 2.343 1.594 1.563 2.39 3.852 2.39 6.86v12.203h-3.843v-11.766c0-2.05-.496-3.593-1.484-4.625-.993-1.039-2.403-1.562-4.235-1.562-2.086 0-3.726.61-4.922 1.828-1.199 1.21-1.796 2.945-1.796 5.203v10.922h-3.844v-21.203h3.672v3.203c.78-1.094 1.828-1.93 3.14-2.516 1.32-.593 2.82-.89 4.5-.89zm0 0" fill="#377C9B"/><path d="M268.434 181.847v18.328c0 3.707-.922 6.445-2.766 8.219-1.836 1.77-4.578 2.656-8.234 2.656-2 0-3.907-.277-5.72-.828-1.812-.543-3.28-1.32-4.405-2.328l1.843-2.969c.989.852 2.207 1.523 3.657 2.016 1.457.5 2.957.75 4.5.75 2.476 0 4.312-.59 5.5-1.766 1.187-1.168 1.78-2.953 1.78-5.36v-1.671a8.562 8.562 0 01-3.343 2.468c-1.312.543-2.746.813-4.297.813-2.023 0-3.855-.43-5.5-1.297-1.637-.875-2.922-2.086-3.86-3.64-.929-1.563-1.39-3.344-1.39-5.344 0-2 .461-3.782 1.39-5.344a9.587 9.587 0 013.86-3.625c1.645-.852 3.477-1.281 5.5-1.281 1.602 0 3.086.297 4.453.89 1.375.586 2.504 1.45 3.391 2.594v-3.281zm-11.047 16.969c1.383 0 2.629-.29 3.734-.875 1.113-.594 1.984-1.414 2.61-2.47.624-1.05.937-2.241.937-3.577 0-2.051-.684-3.711-2.047-4.985-1.355-1.27-3.101-1.906-5.234-1.906-2.157 0-3.918.637-5.282 1.906-1.355 1.274-2.03 2.934-2.03 4.985 0 1.336.312 2.527.937 3.578a6.55 6.55 0 002.593 2.469c1.114.586 2.375.875 3.782.875zm27.441 4.468c-2.106 0-4-.46-5.688-1.39-1.68-.938-2.992-2.223-3.937-3.86-.938-1.644-1.407-3.504-1.407-5.578 0-2.082.47-3.941 1.407-5.578a9.965 9.965 0 013.937-3.844c1.688-.925 3.582-1.39 5.688-1.39 2.101 0 3.988.465 5.656 1.39 1.664.918 2.973 2.2 3.922 3.844.945 1.637 1.422 3.496 1.422 5.578 0 2.074-.477 3.934-1.422 5.578a10.282 10.282 0 01-3.922 3.86c-1.668.93-3.555 1.39-5.656 1.39zm0-3.359c1.363 0 2.582-.313 3.656-.938 1.082-.625 1.93-1.503 2.547-2.64.613-1.133.922-2.43.922-3.89 0-1.47-.309-2.77-.922-3.907-.617-1.133-1.465-2.008-2.547-2.625-1.074-.613-2.293-.922-3.656-.922-1.356 0-2.575.309-3.657.922-1.085.617-1.937 1.492-2.562 2.625-.625 1.137-.938 2.437-.938 3.906 0 1.461.313 2.758.938 3.89.625 1.138 1.477 2.016 2.562 2.641 1.082.625 2.301.938 3.657.938zm25.397 3.359c-2.105 0-4-.46-5.687-1.39-1.68-.938-2.993-2.223-3.938-3.86-.937-1.644-1.406-3.504-1.406-5.578 0-2.082.469-3.941 1.406-5.578a9.965 9.965 0 013.938-3.844c1.687-.925 3.582-1.39 5.687-1.39 2.102 0 3.988.465 5.656 1.39 1.664.918 2.973 2.2 3.922 3.844.946 1.637 1.422 3.496 1.422 5.578 0 2.074-.476 3.934-1.422 5.578a10.282 10.282 0 01-3.922 3.86c-1.668.93-3.554 1.39-5.656 1.39zm0-3.359c1.363 0 2.582-.313 3.656-.938 1.082-.625 1.93-1.503 2.547-2.64.614-1.133.922-2.43.922-3.89 0-1.47-.308-2.77-.922-3.907-.617-1.133-1.465-2.008-2.547-2.625-1.074-.613-2.293-.922-3.656-.922-1.355 0-2.574.309-3.656.922-1.086.617-1.938 1.492-2.563 2.625-.625 1.137-.937 2.437-.937 3.906 0 1.461.312 2.758.937 3.89.625 1.138 1.477 2.016 2.563 2.641 1.082.625 2.3.938 3.656.938zm36.32-26.563v29.688h-3.688v-3.36a8.155 8.155 0 01-3.234 2.688c-1.305.606-2.743.906-4.313.906-2.062 0-3.906-.453-5.531-1.359a9.698 9.698 0 01-3.813-3.813c-.918-1.644-1.375-3.53-1.375-5.656 0-2.133.457-4.015 1.375-5.64a9.724 9.724 0 013.813-3.813c1.625-.906 3.469-1.36 5.531-1.36 1.52 0 2.914.29 4.188.86a8.15 8.15 0 013.203 2.547v-11.688zm-10.922 26.563c1.332 0 2.547-.313 3.64-.938a6.588 6.588 0 002.563-2.64c.613-1.133.922-2.43.922-3.89 0-1.47-.309-2.77-.922-3.907-.617-1.133-1.469-2.008-2.563-2.625-1.093-.613-2.308-.922-3.64-.922-1.356 0-2.575.309-3.657.922-1.086.617-1.937 1.492-2.562 2.625-.625 1.137-.938 2.437-.938 3.906 0 1.461.313 2.758.938 3.89.625 1.138 1.476 2.016 2.562 2.641 1.082.625 2.301.938 3.657.938zm24.277 3.359c-1.73 0-3.398-.23-5-.687-1.606-.469-2.86-1.063-3.766-1.781l1.61-3.047c.925.668 2.054 1.203 3.39 1.61a14.04 14.04 0 004.047.593c3.363 0 5.047-.957 5.047-2.875 0-.645-.23-1.156-.687-1.531-.45-.375-1.016-.645-1.704-.813-.68-.176-1.64-.367-2.89-.578-1.711-.27-3.106-.578-4.188-.922a6.366 6.366 0 01-2.78-1.75c-.774-.832-1.157-2-1.157-3.5 0-1.914.797-3.453 2.39-4.61 1.602-1.163 3.754-1.75 6.454-1.75 1.406 0 2.816.18 4.234.532 1.414.344 2.578.809 3.484 1.39l-1.64 3.047c-1.742-1.125-3.782-1.687-6.125-1.687-1.625 0-2.867.273-3.72.812-.855.532-1.28 1.235-1.28 2.11 0 .7.238 1.25.718 1.656.477.399 1.07.688 1.782.875.707.18 1.703.387 2.984.625 1.707.305 3.086.621 4.14.953a6.154 6.154 0 012.688 1.703c.75.793 1.125 1.907 1.125 3.344 0 1.93-.824 3.461-2.469 4.594-1.636 1.125-3.867 1.687-6.687 1.687zM5.185 166.259l2.719-.969 2.89 8.844-2.312.813zm9.965-6.508h3.202l-.28 10.25h-2.688zm11.827 4.355l3.015 1.078-3.719 9.547-2.53-.906zm0 0" fill="#84B77C"/></svg>