<svg xmlns="http://www.w3.org/2000/svg" xmlns:xlink="http://www.w3.org/1999/xlink" width="500" zoomAndPan="magnify" viewBox="0 0 375 374.999991" height="500" preserveAspectRatio="xMidYMid meet" version="1.0"><defs><g/></defs><g fill="rgb(21.569824%, 48.629761%, 60.778809%)" fill-opacity="1"><g transform="translate(4.781254, 203.049992)"><g><path d="M 23.40625 -21.203125 L 23.40625 0 L 19.765625 0 L 19.765625 -3.203125 C 18.984375 -2.109375 17.957031 -1.257812 16.6875 -0.65625 C 15.425781 -0.0625 14.050781 0.234375 12.5625 0.234375 C 9.726562 0.234375 7.5 -0.539062 5.875 -2.09375 C 4.25 -3.65625 3.4375 -5.957031 3.4375 -9 L 3.4375 -21.203125 L 7.28125 -21.203125 L 7.28125 -9.4375 C 7.28125 -7.382812 7.769531 -5.832031 8.75 -4.78125 C 9.738281 -3.726562 11.15625 -3.203125 13 -3.203125 C 15.03125 -3.203125 16.628906 -3.8125 17.796875 -5.03125 C 18.972656 -6.257812 19.5625 -7.992188 19.5625 -10.234375 L 19.5625 -21.203125 Z M 23.40625 -21.203125 "/></g></g></g><g fill="rgb(21.569824%, 48.629761%, 60.778809%)" fill-opacity="1"><g transform="translate(31.858568, 203.049992)"><g><path d="M 14.953125 -21.40625 C 17.648438 -21.40625 19.789062 -20.625 21.375 -19.0625 C 22.96875 -17.5 23.765625 -15.210938 23.765625 -12.203125 L 23.765625 0 L 19.921875 0 L 19.921875 -11.765625 C 19.921875 -13.816406 19.425781 -15.359375 18.4375 -16.390625 C 17.445312 -17.429688 16.035156 -17.953125 14.203125 -17.953125 C 12.117188 -17.953125 10.476562 -17.34375 9.28125 -16.125 C 8.082031 -14.914062 7.484375 -13.179688 7.484375 -10.921875 L 7.484375 0 L 3.640625 0 L 3.640625 -21.203125 L 7.3125 -21.203125 L 7.3125 -18 C 8.09375 -19.09375 9.140625 -19.929688 10.453125 -20.515625 C 11.773438 -21.109375 13.273438 -21.40625 14.953125 -21.40625 Z M 14.953125 -21.40625 "/></g></g></g><g fill="rgb(21.569824%, 48.629761%, 60.778809%)" fill-opacity="1"><g transform="translate(59.09586, 203.049992)"><g><path d="M 12.875 0.234375 C 10.71875 0.234375 8.789062 -0.226562 7.09375 -1.15625 C 5.40625 -2.09375 4.082031 -3.378906 3.125 -5.015625 C 2.164062 -6.660156 1.6875 -8.519531 1.6875 -10.59375 C 1.6875 -12.675781 2.164062 -14.535156 3.125 -16.171875 C 4.082031 -17.816406 5.40625 -19.097656 7.09375 -20.015625 C 8.789062 -20.941406 10.71875 -21.40625 12.875 -21.40625 C 14.800781 -21.40625 16.515625 -21.015625 18.015625 -20.234375 C 19.523438 -19.460938 20.691406 -18.34375 21.515625 -16.875 L 18.59375 -15 C 17.925781 -16.007812 17.097656 -16.769531 16.109375 -17.28125 C 15.128906 -17.789062 14.039062 -18.046875 12.84375 -18.046875 C 11.457031 -18.046875 10.207031 -17.738281 9.09375 -17.125 C 7.988281 -16.507812 7.125 -15.632812 6.5 -14.5 C 5.875 -13.363281 5.5625 -12.0625 5.5625 -10.59375 C 5.5625 -9.101562 5.875 -7.789062 6.5 -6.65625 C 7.125 -5.519531 7.988281 -4.644531 9.09375 -4.03125 C 10.207031 -3.425781 11.457031 -3.125 12.84375 -3.125 C 14.039062 -3.125 15.128906 -3.375 16.109375 -3.875 C 17.097656 -4.382812 17.925781 -5.144531 18.59375 -6.15625 L 21.515625 -4.3125 C 20.691406 -2.851562 19.523438 -1.726562 18.015625 -0.9375 C 16.515625 -0.15625 14.800781 0.234375 12.875 0.234375 Z M 12.875 0.234375 "/></g></g></g><g fill="rgb(21.569824%, 48.629761%, 60.778809%)" fill-opacity="1"><g transform="translate(81.933585, 203.049992)"><g><path d="M 12.71875 0.234375 C 10.613281 0.234375 8.71875 -0.226562 7.03125 -1.15625 C 5.351562 -2.09375 4.039062 -3.378906 3.09375 -5.015625 C 2.15625 -6.660156 1.6875 -8.519531 1.6875 -10.59375 C 1.6875 -12.675781 2.15625 -14.535156 3.09375 -16.171875 C 4.039062 -17.816406 5.351562 -19.097656 7.03125 -20.015625 C 8.71875 -20.941406 10.613281 -21.40625 12.71875 -21.40625 C 14.820312 -21.40625 16.707031 -20.941406 18.375 -20.015625 C 20.039062 -19.097656 21.347656 -17.816406 22.296875 -16.171875 C 23.242188 -14.535156 23.71875 -12.675781 23.71875 -10.59375 C 23.71875 -8.519531 23.242188 -6.660156 22.296875 -5.015625 C 21.347656 -3.378906 20.039062 -2.09375 18.375 -1.15625 C 16.707031 -0.226562 14.820312 0.234375 12.71875 0.234375 Z M 12.71875 -3.125 C 14.082031 -3.125 15.300781 -3.4375 16.375 -4.0625 C 17.457031 -4.6875 18.304688 -5.566406 18.921875 -6.703125 C 19.535156 -7.835938 19.84375 -9.132812 19.84375 -10.59375 C 19.84375 -12.0625 19.535156 -13.363281 18.921875 -14.5 C 18.304688 -15.632812 17.457031 -16.507812 16.375 -17.125 C 15.300781 -17.738281 14.082031 -18.046875 12.71875 -18.046875 C 11.363281 -18.046875 10.144531 -17.738281 9.0625 -17.125 C 7.976562 -16.507812 7.125 -15.632812 6.5 -14.5 C 5.875 -13.363281 5.5625 -12.0625 5.5625 -10.59375 C 5.5625 -9.132812 5.875 -7.835938 6.5 -6.703125 C 7.125 -5.566406 7.976562 -4.6875 9.0625 -4.0625 C 10.144531 -3.4375 11.363281 -3.125 12.71875 -3.125 Z M 12.71875 -3.125 "/></g></g></g><g fill="rgb(21.569824%, 48.629761%, 60.778809%)" fill-opacity="1"><g transform="translate(107.331056, 203.049992)"><g><path d="M 30.15625 -21.40625 C 32.820312 -21.40625 34.9375 -20.628906 36.5 -19.078125 C 38.0625 -17.535156 38.84375 -15.242188 38.84375 -12.203125 L 38.84375 0 L 35 0 L 35 -11.765625 C 35 -13.816406 34.523438 -15.359375 33.578125 -16.390625 C 32.628906 -17.429688 31.273438 -17.953125 29.515625 -17.953125 C 27.566406 -17.953125 26.019531 -17.34375 24.875 -16.125 C 23.726562 -14.914062 23.15625 -13.179688 23.15625 -10.921875 L 23.15625 0 L 19.3125 0 L 19.3125 -11.765625 C 19.3125 -13.816406 18.835938 -15.359375 17.890625 -16.390625 C 16.953125 -17.429688 15.601562 -17.953125 13.84375 -17.953125 C 11.894531 -17.953125 10.347656 -17.34375 9.203125 -16.125 C 8.054688 -14.914062 7.484375 -13.179688 7.484375 -10.921875 L 7.484375 0 L 3.640625 0 L 3.640625 -21.203125 L 7.3125 -21.203125 L 7.3125 -18.046875 C 8.09375 -19.140625 9.109375 -19.972656 10.359375 -20.546875 C 11.609375 -21.117188 13.035156 -21.40625 14.640625 -21.40625 C 16.296875 -21.40625 17.757812 -21.070312 19.03125 -20.40625 C 20.3125 -19.738281 21.300781 -18.765625 22 -17.484375 C 22.800781 -18.703125 23.914062 -19.660156 25.34375 -20.359375 C 26.769531 -21.054688 28.375 -21.40625 30.15625 -21.40625 Z M 30.15625 -21.40625 "/></g></g></g><g fill="rgb(21.569824%, 48.629761%, 60.778809%)" fill-opacity="1"><g transform="translate(149.606856, 203.049992)"><g><path d="M 30.15625 -21.40625 C 32.820312 -21.40625 34.9375 -20.628906 36.5 -19.078125 C 38.0625 -17.535156 38.84375 -15.242188 38.84375 -12.203125 L 38.84375 0 L 35 0 L 35 -11.765625 C 35 -13.816406 34.523438 -15.359375 33.578125 -16.390625 C 32.628906 -17.429688 31.273438 -17.953125 29.515625 -17.953125 C 27.566406 -17.953125 26.019531 -17.34375 24.875 -16.125 C 23.726562 -14.914062 23.15625 -13.179688 23.15625 -10.921875 L 23.15625 0 L 19.3125 0 L 19.3125 -11.765625 C 19.3125 -13.816406 18.835938 -15.359375 17.890625 -16.390625 C 16.953125 -17.429688 15.601562 -17.953125 13.84375 -17.953125 C 11.894531 -17.953125 10.347656 -17.34375 9.203125 -16.125 C 8.054688 -14.914062 7.484375 -13.179688 7.484375 -10.921875 L 7.484375 0 L 3.640625 0 L 3.640625 -21.203125 L 7.3125 -21.203125 L 7.3125 -18.046875 C 8.09375 -19.140625 9.109375 -19.972656 10.359375 -20.546875 C 11.609375 -21.117188 13.035156 -21.40625 14.640625 -21.40625 C 16.296875 -21.40625 17.757812 -21.070312 19.03125 -20.40625 C 20.3125 -19.738281 21.300781 -18.765625 22 -17.484375 C 22.800781 -18.703125 23.914062 -19.660156 25.34375 -20.359375 C 26.769531 -21.054688 28.375 -21.40625 30.15625 -21.40625 Z M 30.15625 -21.40625 "/></g></g></g><g fill="rgb(21.569824%, 48.629761%, 60.778809%)" fill-opacity="1"><g transform="translate(191.882656, 203.049992)"><g><path d="M 12.71875 0.234375 C 10.613281 0.234375 8.71875 -0.226562 7.03125 -1.15625 C 5.351562 -2.09375 4.039062 -3.378906 3.09375 -5.015625 C 2.15625 -6.660156 1.6875 -8.519531 1.6875 -10.59375 C 1.6875 -12.675781 2.15625 -14.535156 3.09375 -16.171875 C 4.039062 -17.816406 5.351562 -19.097656 7.03125 -20.015625 C 8.71875 -20.941406 10.613281 -21.40625 12.71875 -21.40625 C 14.820312 -21.40625 16.707031 -20.941406 18.375 -20.015625 C 20.039062 -19.097656 21.347656 -17.816406 22.296875 -16.171875 C 23.242188 -14.535156 23.71875 -12.675781 23.71875 -10.59375 C 23.71875 -8.519531 23.242188 -6.660156 22.296875 -5.015625 C 21.347656 -3.378906 20.039062 -2.09375 18.375 -1.15625 C 16.707031 -0.226562 14.820312 0.234375 12.71875 0.234375 Z M 12.71875 -3.125 C 14.082031 -3.125 15.300781 -3.4375 16.375 -4.0625 C 17.457031 -4.6875 18.304688 -5.566406 18.921875 -6.703125 C 19.535156 -7.835938 19.84375 -9.132812 19.84375 -10.59375 C 19.84375 -12.0625 19.535156 -13.363281 18.921875 -14.5 C 18.304688 -15.632812 17.457031 -16.507812 16.375 -17.125 C 15.300781 -17.738281 14.082031 -18.046875 12.71875 -18.046875 C 11.363281 -18.046875 10.144531 -17.738281 9.0625 -17.125 C 7.976562 -16.507812 7.125 -15.632812 6.5 -14.5 C 5.875 -13.363281 5.5625 -12.0625 5.5625 -10.59375 C 5.5625 -9.132812 5.875 -7.835938 6.5 -6.703125 C 7.125 -5.566406 7.976562 -4.6875 9.0625 -4.0625 C 10.144531 -3.4375 11.363281 -3.125 12.71875 -3.125 Z M 12.71875 -3.125 "/></g></g></g><g fill="rgb(21.569824%, 48.629761%, 60.778809%)" fill-opacity="1"><g transform="translate(217.280127, 203.049992)"><g><path d="M 14.953125 -21.40625 C 17.648438 -21.40625 19.789062 -20.625 21.375 -19.0625 C 22.96875 -17.5 23.765625 -15.210938 23.765625 -12.203125 L 23.765625 0 L 19.921875 0 L 19.921875 -11.765625 C 19.921875 -13.816406 19.425781 -15.359375 18.4375 -16.390625 C 17.445312 -17.429688 16.035156 -17.953125 14.203125 -17.953125 C 12.117188 -17.953125 10.476562 -17.34375 9.28125 -16.125 C 8.082031 -14.914062 7.484375 -13.179688 7.484375 -10.921875 L 7.484375 0 L 3.640625 0 L 3.640625 -21.203125 L 7.3125 -21.203125 L 7.3125 -18 C 8.09375 -19.09375 9.140625 -19.929688 10.453125 -20.515625 C 11.773438 -21.109375 13.273438 -21.40625 14.953125 -21.40625 Z M 14.953125 -21.40625 "/></g></g></g><g fill="rgb(51.759338%, 71.759033%, 48.629761%)" fill-opacity="1"><g transform="translate(244.511707, 203.049992)"><g><path d="M 23.921875 -21.203125 L 23.921875 -2.875 C 23.921875 0.832031 23 3.570312 21.15625 5.34375 C 19.320312 7.113281 16.578125 8 12.921875 8 C 10.921875 8 9.015625 7.722656 7.203125 7.171875 C 5.390625 6.628906 3.921875 5.851562 2.796875 4.84375 L 4.640625 1.875 C 5.628906 2.726562 6.847656 3.398438 8.296875 3.890625 C 9.753906 4.390625 11.253906 4.640625 12.796875 4.640625 C 15.273438 4.640625 17.109375 4.050781 18.296875 2.875 C 19.484375 1.707031 20.078125 -0.078125 20.078125 -2.484375 L 20.078125 -4.15625 C 19.171875 -3.0625 18.054688 -2.238281 16.734375 -1.6875 C 15.421875 -1.144531 13.988281 -0.875 12.4375 -0.875 C 10.414062 -0.875 8.582031 -1.304688 6.9375 -2.171875 C 5.300781 -3.046875 4.015625 -4.257812 3.078125 -5.8125 C 2.148438 -7.375 1.6875 -9.15625 1.6875 -11.15625 C 1.6875 -13.15625 2.148438 -14.9375 3.078125 -16.5 C 4.015625 -18.0625 5.300781 -19.269531 6.9375 -20.125 C 8.582031 -20.976562 10.414062 -21.40625 12.4375 -21.40625 C 14.039062 -21.40625 15.523438 -21.109375 16.890625 -20.515625 C 18.265625 -19.929688 19.394531 -19.066406 20.28125 -17.921875 L 20.28125 -21.203125 Z M 12.875 -4.234375 C 14.257812 -4.234375 15.503906 -4.523438 16.609375 -5.109375 C 17.722656 -5.703125 18.59375 -6.523438 19.21875 -7.578125 C 19.84375 -8.628906 20.15625 -9.820312 20.15625 -11.15625 C 20.15625 -13.207031 19.472656 -14.867188 18.109375 -16.140625 C 16.753906 -17.410156 15.007812 -18.046875 12.875 -18.046875 C 10.71875 -18.046875 8.957031 -17.410156 7.59375 -16.140625 C 6.238281 -14.867188 5.5625 -13.207031 5.5625 -11.15625 C 5.5625 -9.820312 5.875 -8.628906 6.5 -7.578125 C 7.125 -6.523438 7.988281 -5.703125 9.09375 -5.109375 C 10.207031 -4.523438 11.46875 -4.234375 12.875 -4.234375 Z M 12.875 -4.234375 "/></g></g></g><g fill="rgb(51.759338%, 71.759033%, 48.629761%)" fill-opacity="1"><g transform="translate(272.108961, 203.049992)"><g><path d="M 12.71875 0.234375 C 10.613281 0.234375 8.71875 -0.226562 7.03125 -1.15625 C 5.351562 -2.09375 4.039062 -3.378906 3.09375 -5.015625 C 2.15625 -6.660156 1.6875 -8.519531 1.6875 -10.59375 C 1.6875 -12.675781 2.15625 -14.535156 3.09375 -16.171875 C 4.039062 -17.816406 5.351562 -19.097656 7.03125 -20.015625 C 8.71875 -20.941406 10.613281 -21.40625 12.71875 -21.40625 C 14.820312 -21.40625 16.707031 -20.941406 18.375 -20.015625 C 20.039062 -19.097656 21.347656 -17.816406 22.296875 -16.171875 C 23.242188 -14.535156 23.71875 -12.675781 23.71875 -10.59375 C 23.71875 -8.519531 23.242188 -6.660156 22.296875 -5.015625 C 21.347656 -3.378906 20.039062 -2.09375 18.375 -1.15625 C 16.707031 -0.226562 14.820312 0.234375 12.71875 0.234375 Z M 12.71875 -3.125 C 14.082031 -3.125 15.300781 -3.4375 16.375 -4.0625 C 17.457031 -4.6875 18.304688 -5.566406 18.921875 -6.703125 C 19.535156 -7.835938 19.84375 -9.132812 19.84375 -10.59375 C 19.84375 -12.0625 19.535156 -13.363281 18.921875 -14.5 C 18.304688 -15.632812 17.457031 -16.507812 16.375 -17.125 C 15.300781 -17.738281 14.082031 -18.046875 12.71875 -18.046875 C 11.363281 -18.046875 10.144531 -17.738281 9.0625 -17.125 C 7.976562 -16.507812 7.125 -15.632812 6.5 -14.5 C 5.875 -13.363281 5.5625 -12.0625 5.5625 -10.59375 C 5.5625 -9.132812 5.875 -7.835938 6.5 -6.703125 C 7.125 -5.566406 7.976562 -4.6875 9.0625 -4.0625 C 10.144531 -3.4375 11.363281 -3.125 12.71875 -3.125 Z M 12.71875 -3.125 "/></g></g></g><g fill="rgb(51.759338%, 71.759033%, 48.629761%)" fill-opacity="1"><g transform="translate(297.506432, 203.049992)"><g><path d="M 12.71875 0.234375 C 10.613281 0.234375 8.71875 -0.226562 7.03125 -1.15625 C 5.351562 -2.09375 4.039062 -3.378906 3.09375 -5.015625 C 2.15625 -6.660156 1.6875 -8.519531 1.6875 -10.59375 C 1.6875 -12.675781 2.15625 -14.535156 3.09375 -16.171875 C 4.039062 -17.816406 5.351562 -19.097656 7.03125 -20.015625 C 8.71875 -20.941406 10.613281 -21.40625 12.71875 -21.40625 C 14.820312 -21.40625 16.707031 -20.941406 18.375 -20.015625 C 20.039062 -19.097656 21.347656 -17.816406 22.296875 -16.171875 C 23.242188 -14.535156 23.71875 -12.675781 23.71875 -10.59375 C 23.71875 -8.519531 23.242188 -6.660156 22.296875 -5.015625 C 21.347656 -3.378906 20.039062 -2.09375 18.375 -1.15625 C 16.707031 -0.226562 14.820312 0.234375 12.71875 0.234375 Z M 12.71875 -3.125 C 14.082031 -3.125 15.300781 -3.4375 16.375 -4.0625 C 17.457031 -4.6875 18.304688 -5.566406 18.921875 -6.703125 C 19.535156 -7.835938 19.84375 -9.132812 19.84375 -10.59375 C 19.84375 -12.0625 19.535156 -13.363281 18.921875 -14.5 C 18.304688 -15.632812 17.457031 -16.507812 16.375 -17.125 C 15.300781 -17.738281 14.082031 -18.046875 12.71875 -18.046875 C 11.363281 -18.046875 10.144531 -17.738281 9.0625 -17.125 C 7.976562 -16.507812 7.125 -15.632812 6.5 -14.5 C 5.875 -13.363281 5.5625 -12.0625 5.5625 -10.59375 C 5.5625 -9.132812 5.875 -7.835938 6.5 -6.703125 C 7.125 -5.566406 7.976562 -4.6875 9.0625 -4.0625 C 10.144531 -3.4375 11.363281 -3.125 12.71875 -3.125 Z M 12.71875 -3.125 "/></g></g></g><g fill="rgb(51.759338%, 71.759033%, 48.629761%)" fill-opacity="1"><g transform="translate(322.903903, 203.049992)"><g><path d="M 23.640625 -29.6875 L 23.640625 0 L 19.953125 0 L 19.953125 -3.359375 C 19.109375 -2.179688 18.03125 -1.285156 16.71875 -0.671875 C 15.414062 -0.0664062 13.976562 0.234375 12.40625 0.234375 C 10.34375 0.234375 8.5 -0.21875 6.875 -1.125 C 5.25 -2.03125 3.976562 -3.300781 3.0625 -4.9375 C 2.144531 -6.582031 1.6875 -8.46875 1.6875 -10.59375 C 1.6875 -12.726562 2.144531 -14.609375 3.0625 -16.234375 C 3.976562 -17.867188 5.25 -19.140625 6.875 -20.046875 C 8.5 -20.953125 10.34375 -21.40625 12.40625 -21.40625 C 13.925781 -21.40625 15.320312 -21.117188 16.59375 -20.546875 C 17.875 -19.972656 18.941406 -19.125 19.796875 -18 L 19.796875 -29.6875 Z M 12.71875 -3.125 C 14.050781 -3.125 15.265625 -3.4375 16.359375 -4.0625 C 17.453125 -4.6875 18.304688 -5.566406 18.921875 -6.703125 C 19.535156 -7.835938 19.84375 -9.132812 19.84375 -10.59375 C 19.84375 -12.0625 19.535156 -13.363281 18.921875 -14.5 C 18.304688 -15.632812 17.453125 -16.507812 16.359375 -17.125 C 15.265625 -17.738281 14.050781 -18.046875 12.71875 -18.046875 C 11.363281 -18.046875 10.144531 -17.738281 9.0625 -17.125 C 7.976562 -16.507812 7.125 -15.632812 6.5 -14.5 C 5.875 -13.363281 5.5625 -12.0625 5.5625 -10.59375 C 5.5625 -9.132812 5.875 -7.835938 6.5 -6.703125 C 7.125 -5.566406 7.976562 -4.6875 9.0625 -4.0625 C 10.144531 -3.4375 11.363281 -3.125 12.71875 -3.125 Z M 12.71875 -3.125 "/></g></g></g><g fill="rgb(51.759338%, 71.759033%, 48.629761%)" fill-opacity="1"><g transform="translate(350.181192, 203.049992)"><g><path d="M 9.71875 0.234375 C 7.988281 0.234375 6.320312 0.00390625 4.71875 -0.453125 C 3.113281 -0.921875 1.859375 -1.515625 0.953125 -2.234375 L 2.5625 -5.28125 C 3.488281 -4.613281 4.617188 -4.078125 5.953125 -3.671875 C 7.285156 -3.273438 8.632812 -3.078125 10 -3.078125 C 13.363281 -3.078125 15.046875 -4.035156 15.046875 -5.953125 C 15.046875 -6.597656 14.816406 -7.109375 14.359375 -7.484375 C 13.910156 -7.859375 13.34375 -8.128906 12.65625 -8.296875 C 11.976562 -8.472656 11.015625 -8.664062 9.765625 -8.875 C 8.054688 -9.144531 6.660156 -9.453125 5.578125 -9.796875 C 4.492188 -10.140625 3.566406 -10.722656 2.796875 -11.546875 C 2.023438 -12.378906 1.640625 -13.546875 1.640625 -15.046875 C 1.640625 -16.960938 2.4375 -18.5 4.03125 -19.65625 C 5.632812 -20.820312 7.785156 -21.40625 10.484375 -21.40625 C 11.890625 -21.40625 13.300781 -21.226562 14.71875 -20.875 C 16.132812 -20.53125 17.296875 -20.066406 18.203125 -19.484375 L 16.5625 -16.4375 C 14.820312 -17.5625 12.78125 -18.125 10.4375 -18.125 C 8.8125 -18.125 7.570312 -17.851562 6.71875 -17.3125 C 5.863281 -16.78125 5.4375 -16.078125 5.4375 -15.203125 C 5.4375 -14.503906 5.675781 -13.953125 6.15625 -13.546875 C 6.632812 -13.148438 7.226562 -12.859375 7.9375 -12.671875 C 8.644531 -12.492188 9.640625 -12.285156 10.921875 -12.046875 C 12.628906 -11.742188 14.007812 -11.425781 15.0625 -11.09375 C 16.113281 -10.757812 17.007812 -10.191406 17.75 -9.390625 C 18.5 -8.597656 18.875 -7.484375 18.875 -6.046875 C 18.875 -4.117188 18.050781 -2.585938 16.40625 -1.453125 C 14.769531 -0.328125 12.539062 0.234375 9.71875 0.234375 Z M 9.71875 0.234375 "/></g></g></g><g fill="rgb(51.759338%, 71.759033%, 48.629761%)" fill-opacity="1"><g transform="translate(11.200663, 189.712164)"><g><path d="M -6.015625 -23.453125 L -3.296875 -24.421875 L -0.40625 -15.578125 L -2.71875 -14.765625 Z M -6.015625 -23.453125 "/></g></g></g><g fill="rgb(51.759338%, 71.759033%, 48.629761%)" fill-opacity="1"><g transform="translate(12.75866, 186.344988)"><g><path d="M 2.390625 -26.59375 L 5.59375 -26.59375 L 5.3125 -16.34375 L 2.625 -16.34375 Z M 2.390625 -26.59375 "/></g></g></g><g fill="rgb(51.759338%, 71.759033%, 48.629761%)" fill-opacity="1"><g transform="translate(15.773478, 188.324983)"><g><path d="M 11.203125 -24.21875 L 14.21875 -23.140625 L 10.5 -13.59375 L 7.96875 -14.5 Z M 11.203125 -24.21875 "/></g></g></g></svg>